<?xml version="1.0" encoding="UTF-8"?><svg xmlns="http://www.w3.org/2000/svg" xmlns:xlink="http://www.w3.org/1999/xlink" height="1024.0" preserveAspectRatio="xMidYMid meet" version="1.0" viewBox="0.0 0.0 1024.0 1024.0" width="1024.0" zoomAndPan="magnify"><g><g id="change1_1"><path d="M 1024 512 C 1024 229.230469 794.769531 0 512 0 C 229.230469 0 0 229.230469 0 512 C 0 767.554688 187.230469 979.371094 432 1017.78125 L 432 660 L 302 660 L 302 512 L 432 512 L 432 399.199219 C 432 270.878906 508.4375 200 625.390625 200 C 681.40625 200 740 210 740 210 L 740 336 L 675.4375 336 C 611.835938 336 592 375.46875 592 415.957031 L 592 512 L 734 512 L 711.300781 660 L 592 660 L 592 1017.78125 C 836.769531 979.371094 1024 767.554688 1024 512" fill="#1877f2"/></g><g id="change2_1"><path d="M 711.300781 660 L 734 512 L 592 512 L 592 415.957031 C 592 375.46875 611.835938 336 675.4375 336 L 740 336 L 740 210 C 740 210 681.40625 200 625.390625 200 C 508.4375 200 432 270.878906 432 399.199219 L 432 512 L 302 512 L 302 660 L 432 660 L 432 1017.78125 C 458.066406 1021.871094 484.785156 1024 512 1024 C 539.214844 1024 565.933594 1021.871094 592 1017.78125 L 592 660 L 711.300781 660" fill="#fff"/></g></g></svg>