<?xml version="1.0" encoding="UTF-8"?><svg xmlns="http://www.w3.org/2000/svg" xmlns:xlink="http://www.w3.org/1999/xlink" height="718.5" preserveAspectRatio="xMidYMid meet" version="1.0" viewBox="1.8 1.3 1021.4 718.5" width="1021.4" zoomAndPan="magnify"><g><g><g id="change1_1"><path d="M1013,156.3c0,0-10-70.4-40.6-101.4C933.6,14.2,890,14,870.1,11.6C727.1,1.3,512.7,1.3,512.7,1.3h-0.4 c0,0-214.4,0-357.4,10.3C135,14,91.4,14.2,52.6,54.9C22,85.9,12,156.3,12,156.3S1.8,238.9,1.8,321.6v77.5 C1.8,481.8,12,564.4,12,564.4s10,70.4,40.6,101.4c38.9,40.7,89.9,39.4,112.6,43.7c81.7,7.8,347.3,10.3,347.3,10.3 s214.6-0.3,357.6-10.7c20-2.4,63.5-2.6,102.3-43.3c30.6-31,40.6-101.4,40.6-101.4s10.2-82.7,10.2-165.3v-77.5 C1023.2,238.9,1013,156.3,1013,156.3z M407,493l0-287l276,144L407,493z" fill="#E91D00"/></g></g></g><g id="change2_1"><path clip-rule="evenodd" d="M649 367.6L649 367.6" fill="#FFF" fill-rule="evenodd" opacity=".12"/></g><g id="change2_2"><path d="M407 206L407 493 683 350z" fill="#FFF"/></g></svg>