<?xml version="1.0" encoding="UTF-8"?><svg xmlns="http://www.w3.org/2000/svg" xmlns:xlink="http://www.w3.org/1999/xlink" height="126.7" preserveAspectRatio="xMidYMid meet" version="1.0" viewBox="6.7 6.7 126.7 126.7" width="126.7" zoomAndPan="magnify"><g id="change1_1"><path d="m70.002 8.174c-34.138 0-61.83 27.677-61.83 61.83 0 25.306 15.229 47.062 37.02 56.624-.175-4.309-.031-9.503 1.066-14.202 1.194-5.015 7.955-33.681 7.955-33.681s-1.976-3.953-1.976-9.788c0-9.164 5.32-16.002 11.929-16.002 5.621 0 8.339 4.218 8.339 9.284 0 5.647-3.608 14.104-5.46 21.932-1.546 6.569 3.289 11.912 9.761 11.912 11.714 0 19.6-15.045 19.6-32.867 0-13.55-9.124-23.689-25.724-23.689-18.753 0-30.436 13.979-30.436 29.595 0 5.398 1.582 9.19 4.071 12.128 1.147 1.359 1.304 1.898.887 3.453-.29 1.133-.978 3.879-1.259 4.96-.413 1.562-1.679 2.133-3.089 1.551-8.644-3.528-12.663-12.984-12.663-23.624 0-17.561 14.808-38.629 44.184-38.629 23.607 0 39.146 17.092 39.146 35.422 0 24.255-13.484 42.375-33.368 42.375-6.668 0-12.944-3.609-15.101-7.698 0 0-3.593 14.24-4.347 16.991-1.309 4.761-3.875 9.529-6.224 13.24 5.559 1.645 11.437 2.535 17.519 2.535 34.146 0 61.826-27.681 61.826-61.822 0-34.153-27.681-61.83-61.826-61.83z" fill="#c6232c"/></g><g id="change2_1"><path d="m69.066 54.431-.201-.201-.051.049c.082.054.174.096.252.152z" fill="#680719"/></g><g id="change3_1"><path d="m12.421 74.253c0-34.152 27.693-61.829 61.831-61.829 15.99 0 30.563 6.071 41.539 16.033-11.312-12.46-27.634-20.283-45.789-20.283-34.138 0-61.83 27.677-61.83 61.83 0 18.015 7.742 34.202 20.049 45.5-9.822-10.941-15.8-25.399-15.8-41.251z" fill="#e2102e"/></g><path d="m113.646 26.211c-.149-.149-.308-.29-.459-.438-.58-.566-1.165-1.127-1.766-1.671-.249-.224-.509-.438-.761-.658-.518-.453-1.035-.904-1.567-1.339-.298-.243-.606-.475-.908-.713-.501-.395-1.002-.788-1.517-1.166-.332-.247-.674-.481-1.012-.721-.498-.353-.996-.703-1.505-1.041-.359-.239-.726-.468-1.091-.699-.502-.318-1.005-.634-1.517-.938-.382-.227-.769-.446-1.157-.666-.508-.287-1.019-.57-1.535-.844-.401-.211-.807-.417-1.213-.621-.516-.258-1.037-.511-1.561-.756-.418-.194-.838-.384-1.261-.569-.527-.231-1.059-.455-1.594-.672-.431-.175-.862-.347-1.297-.512-.54-.205-1.085-.398-1.632-.589-.441-.154-.883-.307-1.329-.45-.555-.178-1.112-.343-1.673-.507-.449-.13-.897-.262-1.35-.383-.573-.152-1.15-.288-1.729-.425-.451-.105-.901-.216-1.355-.312-.596-.126-1.199-.233-1.801-.343-.447-.08-.89-.168-1.339-.239-.635-.1-1.276-.178-1.917-.259-.426-.054-.848-.117-1.274-.162-.715-.075-1.437-.124-2.157-.174-.362-.025-.721-.063-1.084-.083-1.088-.057-2.183-.088-3.285-.088-34.138 0-61.83 27.677-61.83 61.83 0 1.007.032 2.006.08 3.001.013.264.028.525.045.788.051.852.119 1.699.204 2.541.017.148.026.298.042.445.11 1.001.246 1.994.402 2.98.025.158.055.315.08.473.149.894.317 1.782.505 2.662.024.118.048.237.073.354.453 2.068 1.01 4.096 1.664 6.081.002.005.004.011.005.016 5.508 16.709 17.946 30.274 33.919 37.283-.175-4.309-.031-9.503 1.066-14.202 1.194-5.015 7.955-33.681 7.955-33.681s-1.976-3.953-1.976-9.788c0-9.164 5.32-16.002 11.929-16.002 1.883 0 3.433.481 4.671 1.302l-.022.021c.082.055.174.096.252.152l-.053-.054c2.34 1.653 3.491 4.575 3.491 7.863 0 5.647-3.608 14.104-5.46 21.932-1.546 6.569 3.289 11.912 9.761 11.912 11.714 0 19.6-15.045 19.6-32.867 0-13.55-9.124-23.689-25.724-23.689-18.753 0-30.436 13.979-30.436 29.595 0 5.398 1.582 9.19 4.071 12.128 1.147 1.359 1.304 1.898.887 3.453-.29 1.133-.978 3.879-1.259 4.96-.413 1.562-1.679 2.133-3.089 1.551-8.641-3.527-12.66-12.983-12.66-23.623 0-17.561 14.808-38.629 44.184-38.629 23.607 0 39.146 17.092 39.146 35.422 0 24.255-13.484 42.375-33.368 42.375-6.668 0-12.944-3.609-15.101-7.698 0 0-3.593 14.24-4.347 16.991-1.309 4.761-3.875 9.529-6.224 13.24 5.559 1.645 11.437 2.535 17.519 2.535 34.146 0 61.826-27.681 61.826-61.822 0-17.113-6.952-32.599-18.182-43.793z" fill="none" stroke="#33363a" stroke-linecap="round" stroke-linejoin="round" stroke-miterlimit="10" stroke-width="3"/></svg>