<?xml version="1.0" encoding="UTF-8"?><svg xmlns="http://www.w3.org/2000/svg" xmlns:xlink="http://www.w3.org/1999/xlink" height="47.5" preserveAspectRatio="xMidYMid meet" version="1.0" viewBox="4.0 7.8 56.2 47.5" width="56.2" zoomAndPan="magnify"><g id="change1_1"><path d="m56.41 8.18-51.22 20a1.87 1.87 0 0 0 .15 3.53l9.66 2.82a6.57 6.57 0 0 1 4.41 4.33l3.81 12.08a2.23 2.23 0 0 0 3.73.89l5.24-5.35a2.45 2.45 0 0 1 3.21-.26l11.49 8.43a2.76 2.76 0 0 0 4.31-1.65l8.74-41.81a2.63 2.63 0 0 0 -3.53-3.01zm-6.37 9-17.28 15.31a5.2 5.2 0 0 0 -1.76 3.32 1.19 1.19 0 0 1 -2.31.22l-.79-2.53a4.2 4.2 0 0 1 1.8-4.81l19.76-12.24a.48.48 0 0 1 .54.77z" fill="#0072ff"/></g></svg>